<?xml version="1.0" standalone="no"?>
<!DOCTYPE svg PUBLIC "-//W3C//DTD SVG 20010904//EN"
 "http://www.w3.org/TR/2001/REC-SVG-20010904/DTD/svg10.dtd">
<svg version="1.0" xmlns="http://www.w3.org/2000/svg"
 width="192.000000pt" height="192.000000pt" viewBox="0 0 192.000000 192.000000"
 preserveAspectRatio="xMidYMid meet">
<metadata>
Created by potrace 1.11, written by Peter Selinger 2001-2013
</metadata>
<g transform="translate(0.000000,192.000000) scale(0.100000,-0.100000)"
fill="#000000" stroke="none">
<path d="M560 1578 c-97 -37 -147 -100 -297 -373 -235 -427 -264 -494 -258
-595 4 -80 21 -121 74 -182 57 -65 133 -100 222 -104 152 -6 223 51 383 309
15 25 18 26 32 12 9 -9 34 -25 56 -36 134 -68 292 -59 419 26 22 14 39 21 39
15 0 -19 128 -206 166 -242 71 -67 109 -82 204 -82 73 -1 93 3 142 27 62 31
115 83 149 149 27 52 32 172 10 228 -36 87 -174 356 -228 442 -13 21 -23 40
-23 43 0 3 -32 61 -70 129 -109 193 -186 251 -335 251 -67 0 -89 -5 -136 -28
-31 -15 -77 -48 -102 -74 l-47 -47 -47 47 c-96 98 -232 131 -353 85z m194
-163 c44 -19 159 -132 185 -182 l18 -36 33 49 c80 117 176 187 256 188 96 0
112 -18 281 -325 l80 -147 -48 -5 c-26 -3 -69 -17 -96 -30 -51 -26 -133 -100
-133 -120 0 -7 -16 14 -35 46 -19 32 -35 60 -35 63 0 3 -8 16 -18 29 l-18 22
-17 -59 c-14 -45 -29 -71 -65 -107 -147 -147 -384 -78 -436 127 l-12 46 -52
-89 c-28 -50 -52 -85 -52 -79 0 5 -19 30 -42 53 -47 48 -121 87 -183 97 -49 7
-52 10 -39 32 6 9 26 44 44 77 180 328 174 319 228 352 42 26 91 25 156 -2z
m-343 -645 c81 -59 88 -174 13 -247 -97 -93 -264 -20 -264 117 0 64 40 124
100 149 36 16 116 5 151 -19z m1278 3 c45 -34 71 -82 71 -130 0 -102 -84 -174
-186 -158 -89 13 -151 110 -124 197 13 46 66 104 102 111 43 10 110 -1 137
-20z"/>
<path d="M925 998 c-34 -19 -45 -41 -41 -78 8 -68 84 -93 133 -44 21 21 24 32
20 60 -3 19 -12 40 -19 48 -20 20 -70 27 -93 14z"/>
</g>
</svg>
